<?xml version="1.0" encoding="UTF-8" standalone="no"?>
<svg
   xmlns:dc="http://purl.org/dc/elements/1.1/"
   xmlns:cc="http://creativecommons.org/ns#"
   xmlns:rdf="http://www.w3.org/1999/02/22-rdf-syntax-ns#"
   xmlns:svg="http://www.w3.org/2000/svg"
   xmlns="http://www.w3.org/2000/svg"
   xmlns:sodipodi="http://sodipodi.sourceforge.net/DTD/sodipodi-0.dtd"
   xmlns:inkscape="http://www.inkscape.org/namespaces/inkscape"
   width="300mm"
   height="200mm"
   viewBox="0 0 300 200"
   version="1.1"
   id="svg4643"
   inkscape:version="1.0.1 (3bc2e813f5, 2020-09-07)"
   sodipodi:docname="nat.svg">
  <defs
     id="defs4637" />
  <sodipodi:namedview
     id="base"
     pagecolor="#ffffff"
     bordercolor="#666666"
     borderopacity="1.0"
     inkscape:pageopacity="0.0"
     inkscape:pageshadow="2"
     inkscape:zoom="0.35"
     inkscape:cx="400"
     inkscape:cy="560"
     inkscape:document-units="mm"
     inkscape:current-layer="layer1"
     inkscape:document-rotation="0"
     showgrid="false"
     inkscape:window-width="1920"
     inkscape:window-height="1227"
     inkscape:window-x="-8"
     inkscape:window-y="-8"
     inkscape:window-maximized="1" />
  <metadata
     id="metadata4640">
    <rdf:RDF>
      <cc:Work
         rdf:about="">
        <dc:format>image/svg+xml</dc:format>
        <dc:type
           rdf:resource="http://purl.org/dc/dcmitype/StillImage" />
        <dc:title></dc:title>
      </cc:Work>
    </rdf:RDF>
  </metadata>
  <g
     inkscape:label="Layer 1"
     inkscape:groupmode="layer"
     id="layer1">
    <rect
       style="opacity:0.99;fill:#67017f;fill-opacity:0.992157;stroke:none;stroke-width:1.22329;stroke-linecap:round;stroke-opacity:0"
       id="rect785"
       width="300"
       height="200"
       x="0"
       y="0" />
    <rect
       style="opacity:0.99;fill:#d3a802;fill-opacity:1;stroke:none;stroke-width:1.22329;stroke-linecap:round;stroke-opacity:0"
       id="rect787-7"
       width="100"
       height="200"
       x="0"
       y="0" />
    <rect
       style="opacity:0.99;fill:#d3a802;fill-opacity:1;stroke:none;stroke-width:1.22329;stroke-linecap:round;stroke-opacity:0"
       id="rect787-3"
       width="100"
       height="200"
       x="200"
       y="0" />
    <path
       sodipodi:type="star"
       style="opacity:0.99;fill:#67007f;fill-opacity:0.984314;stroke:#000000;stroke-width:0.64462;stroke-linecap:round;stroke-opacity:0"
       id="path804"
       sodipodi:sides="8"
       sodipodi:cx="50"
       sodipodi:cy="100"
       sodipodi:r1="24.923952"
       sodipodi:r2="9.9695816"
       sodipodi:arg1="-2.3561945"
       sodipodi:arg2="-1.9634954"
       inkscape:flatsided="false"
       inkscape:rounded="0"
       inkscape:randomized="0"
       inkscape:transform-center-x="2.0921345e-05"
       d="M 32.376104,82.376105 46.184806,90.789308 50,75.076048 53.815194,90.789308 67.623895,82.376104 59.210692,96.184806 74.923952,100 59.210692,103.81519 67.623896,117.6239 53.815194,109.21069 50,124.92395 46.184806,109.21069 32.376105,117.6239 40.789308,103.81519 25.076048,100 40.789308,96.184806 Z"
       inkscape:transform-center-y="-1.9513044e-05" />
    <path
       sodipodi:type="star"
       style="opacity:0.99;fill:#67007f;fill-opacity:0.984314;stroke:#000000;stroke-width:0.64462;stroke-linecap:round;stroke-opacity:0"
       id="path804-7"
       sodipodi:sides="8"
       sodipodi:cx="250.00003"
       sodipodi:cy="-100"
       sodipodi:r1="24.923952"
       sodipodi:r2="9.9695816"
       sodipodi:arg1="-2.3561945"
       sodipodi:arg2="-1.9634954"
       inkscape:flatsided="false"
       inkscape:rounded="0"
       inkscape:randomized="0"
       inkscape:transform-center-x="2.0921345e-05"
       d="m 232.37613,-117.6239 13.80871,8.41321 3.81519,-15.71326 3.81519,15.71326 13.80871,-8.41321 -8.41321,13.80871 15.71326,3.81519 -15.71326,3.815194 8.41321,13.808701 -13.80871,-8.413203 -3.81519,15.71326 -3.81519,-15.71326 -13.8087,8.413204 8.4132,-13.808702 L 225.07608,-100 l 15.71326,-3.81519 z"
       transform="scale(1,-1)"
       inkscape:transform-center-y="-1.9513044e-05" />
    <g
       inkscape:label="Layer 1"
       id="layer1-34"
       transform="matrix(1.0890433,0,0,1.0890433,13.421747,-185.5602)">
      <g
         inkscape:label="Layer 1"
         id="layer1-3"
         transform="translate(-6.0548562,-61.849384)">
        <g
           id="layer2"
           inkscape:label="Meubles"
           transform="matrix(0.26458333,0,0,0.26458333,-8e-6,9.6370016e-5)" />
        <g
           id="g2330"
           transform="matrix(1.1318685,0,0,1.1309871,-119.78037,-492.13262)" />
        <g
           id="g396"
           transform="matrix(0.24137362,0,0,0.24138129,96.831376,284.58639)">
          <path
             id="path2322"
             d="m 126.85902,493.56527 c 0.33401,0.20313 0.80381,0.71043 0.89347,0.7602 0.89735,0.41261 1.89969,0.65756 3.04423,0.74139 l 0.25235,0.0144 c 0.6129,0.0314 0.87703,0.16635 1.16987,0.60254 l 0.10703,0.15588 c 0.40811,0.5711 0.92283,1.22866 1.65086,1.75785 0.47408,0.34843 0.95994,0.59468 1.48656,0.75449 0.48425,0.15063 1.04679,0.0706 1.17031,0.44517 1.31429,-0.22872 2.22661,-0.0251 5.96872,-10e-4 0.11645,-0.31306 0.52274,-0.37294 0.84781,-0.50655 0.72968,-0.32616 1.38837,-0.83308 1.99273,-1.53779 0.26252,-0.3039 0.4978,-0.61565 0.71112,-0.93526 0.24896,-0.36021 0.62144,-0.54621 1.11584,-0.56717 0.91875,0.0192 2.19877,-0.10741 2.87799,-0.68076 0.39958,-0.12313 1.32356,-0.8765 1.60799,-1.01797 0.0949,-0.051 0.3267,-0.38389 0.67725,-0.38389 0.26752,0 0.51973,0.0982 0.67889,0.2646 0.16091,0.16635 0.0833,0.42805 0.005,0.62715 -0.0677,0.1729 -0.65161,1.20359 -0.71933,1.27695 l -0.82605,1.29359 c -0.14724,0.16897 -0.3064,0.35891 -0.45038,0.54622 -0.63661,0.83701 -0.70095,1.70284 -0.19125,2.64071 0.19125,0.35104 0.46215,0.70864 0.88041,1.16055 l 0.14548,0.4403 c 0.37926,0.41785 0.66194,0.8095 0.86688,1.19723 0.17948,0.35366 0.38602,0.64315 0.6366,0.89071 0.34365,0.34057 0.6908,0.51347 1.12588,0.56063 0.35054,10e-4 0.56048,-0.0367 0.80253,-0.12575 0.30815,-0.11658 0.6079,-0.31044 0.96169,-0.62612 0.20833,-0.18731 0.40811,-0.37593 0.5926,-0.5842 0.72804,-0.83963 1.23676,-1.46678 2.03415,-2.23829 l 0.18287,-0.17815 c 0.97862,-0.95097 1.72197,-1.83251 2.27392,-2.69703 0.58745,-0.91691 0.80754,-1.84029 0.96328,-2.78995 0.30301,-1.8181 -0.32168,-3.38078 -1.90984,-4.77973 -0.64514,-0.57373 -1.39173,-1.1134 -2.11137,-1.63473 l -0.3725,-0.27114 c -0.65515,-0.4768 -1.34595,-0.99158 -1.97079,-1.5915 -0.21834,-0.20696 -0.42328,-0.43095 -0.61453,-0.65887 -0.22011,-0.2659 -0.28783,-0.55276 -0.20657,-0.85666 0.26752,-0.88285 0.36395,-1.8443 0.29963,-2.95376 -0.0447,-0.93133 -0.24043,-1.65045 -0.61454,-2.2674 -0.0759,-0.12968 -0.13544,-0.25804 -0.19302,-0.38903 l -0.0949,-0.20172 c -0.16932,-0.39035 -0.0826,-0.74139 0.23364,-1.02301 0.24883,-0.22399 0.37587,-0.48466 0.38766,-0.79903 0.0312,-0.86845 0.046,-1.8967 -0.0541,-2.92757 -0.0934,-1.01122 -0.29621,-2.05781 -0.60437,-3.11226 -0.13409,-0.48335 -0.37763,-0.94573 -0.74497,-1.41991 -0.0949,-0.12051 -0.19139,-0.24888 -0.28782,-0.37855 l -0.11789,-0.16112 c -0.26588,-0.36938 -0.21335,-0.75711 0.13137,-1.04528 0.26916,-0.23447 0.49265,-0.53705 0.72969,-0.85797 l 0.13409,-0.18076 c 0.19816,-0.28031 0.51309,-0.72043 1.26483,-0.72043 0.21671,0 0.43344,0.0405 0.65692,0.0838 0.93623,0.18076 1.92342,0.21912 2.55502,0.47848 0.37588,0.15456 0.64501,0.36676 0.88206,0.55539 0,0 0.11917,0.093 0.1206,0.0943 l 0.57743,0.45583 c 0.31653,0.25019 0.6366,0.503 0.95829,0.74925 0.49778,0.37725 0.76689,0.9113 1.18341,1.10123 0.38263,0.17684 0.70935,0.25936 1.02603,0.2646 h 9.2e-4 c 0.47746,0 0.80592,-0.13361 1.10054,-0.43357 0.22349,-0.22923 0.36394,-0.51347 0.42666,-0.8619 0.0826,-0.47417 0.0541,-0.96276 0.0176,-1.33607 -0.0474,-0.42702 0,-0.83832 0.16417,-1.24831 0.0163,-0.051 0.046,-0.12837 0.0813,-0.19779 l 0.0392,-0.0969 c 0.1406,-0.33664 0.27428,-0.65494 0.33523,-0.96669 l -0.0136,-0.81212 c -0.0868,-0.41786 -0.41814,-0.9012 -1.0328,-1.42908 -0.51473,-0.44405 -1.14958,-0.86321 -1.94371,-1.28237 -0.97863,-0.52133 -1.9708,-1.12387 -3.03408,-1.84299 -0.75337,-0.50561 -1.41545,-0.86059 -2.08592,-1.11602 -0.39104,-0.14801 -0.50753,-0.007 -0.83438,-0.0551 -0.77544,-0.11527 -1.49833,-0.0276 -2.21798,0.2777 -0.51471,0.21612 -0.87056,0.57718 -1.4022,0.89548 -0.35718,0.22006 -0.72127,0.44274 -1.08861,0.66017 -0.3217,0.18339 -0.64514,0.32747 -0.98878,0.45322 -0.77721,0.28293 -1.73008,0.19565 -2.50389,-0.10572 -0.36057,-0.13753 -0.90779,-0.46099 -1.21433,-0.50683 -0.46552,-0.0669 -0.81093,-0.29341 -0.97523,-0.6366 -0.12331,-0.25281 -0.25397,-0.51347 -0.39781,-0.77021 -0.54019,-0.99681 -1.33418,-1.72379 -2.43308,-2.22941 -0.78222,-0.35759 -0.65016,-0.8226 -0.48586,-1.1409 0.14045,-0.28686 0.3504,-0.58551 0.63661,-0.90381 l 0.88381,-0.97062 c 0.75174,-0.83701 1.19697,-1.76571 1.31549,-2.7586 0.12188,-0.9955 -0.0312,-1.95957 -0.45376,-2.86862 -0.21671,-0.47025 -0.56713,-0.91561 -1.1394,-1.44873 l -0.3454,-0.31306 c -0.21672,-0.19648 -0.43345,-0.39034 -0.64514,-0.59075 -0.33186,-0.30782 -0.61116,-0.64315 -0.82787,-0.99158 -0.55712,-0.89464 -1.39515,-1.50373 -2.55837,-1.86133 l -0.84995,-0.27245 c -0.0312,-0.008 -0.0689,-0.0183 -0.11517,-0.0341 -0.0677,0.0236 -0.12733,0.0393 -0.1727,0.0524 l -0.92269,0.29865 c -1.04812,0.34449 -1.82858,0.9156 -2.32297,1.69891 -0.32345,0.51347 -0.75851,1.0086 -1.33078,1.5129 l -0.51648,0.4637 c -0.80077,0.71257 -1.29517,1.51683 -1.50851,2.45732 -0.29799,1.33739 -0.0414,2.3952 0.55975,3.49026 0.19979,0.36676 0.4707,0.73746 0.85835,1.16579 l 0.90413,1.01515 c 0.22349,0.25281 0.29357,0.65681 0.42565,0.95153 0.1964,0.43619 0.0339,0.782 -0.48085,1.02564 -1.15132,0.52919 -1.55737,1.22771 -2.10932,2.29133 l -0.65994,0.7619 c -0.20655,0.43226 -0.73373,0.72089 -1.06057,0.76674 -0.31155,0.0419 -0.62308,0.12706 -0.938,0.25018 -0.79401,0.32354 -1.67619,0.3314 -2.50405,0.004 -0.50456,-0.19649 -0.94654,-0.45322 -1.35289,-0.70079 l -0.41812,-0.25411 c -0.29637,-0.17946 -0.59096,-0.51516 -0.89235,-0.69068 -0.24042,-0.14933 -0.48246,-0.26722 -0.73304,-0.37332 -1.00573,-0.4375 -1.86952,-0.32568 -2.96163,0.0437 -0.52826,0.17553 -1.06667,0.4375 -1.70328,0.8226 -0.33186,0.20565 -0.66709,0.41785 -0.98703,0.64184 -0.7619,0.52395 -1.50864,0.97848 -2.28571,1.38978 -0.70271,0.37593 -1.38983,0.5798 -1.89262,0.93871 -0.46568,0.33664 -0.82123,0.6641 -1.0836,1.00336 -0.18624,0.24757 -0.1743,0.5263 -0.25054,0.7529 -0.0176,0.0576 -0.042,0.14016 -0.0895,0.23054 v 0.65101 c 0.0312,0.0603 0.0583,0.12837 0.0786,0.20303 0.0717,0.27901 0.188,0.55146 0.31154,0.82129 0.20655,0.45453 0.15234,0.86742 0.12349,1.35731 -0.0191,0.35891 -0.0216,0.71912 -0.0191,1.08196 0,0.23839 0.0488,0.47941 0.14059,0.71388 0.061,0.17159 0.15577,0.33009 0.28607,0.48334 0.3657,0.41916 0.91089,0.56849 1.54751,0.42309 0.28283,-0.0629 0.56387,-0.17552 0.89059,-0.35628 0.52486,-0.28687 0.95043,-0.82158 1.3534,-1.13726 l 1.48317,-1.16579 c 0.2946,-0.23316 0.6484,-0.42309 1.05475,-0.56456 l 0.15237,-0.0537 c 0.63661,-0.2253 1.34218,-0.28658 2.0888,-0.40708 0.19139,-0.0302 0.33522,-0.0432 0.45374,-0.0432 0.70434,0 1.01763,0.40868 1.14971,0.5829 l 0.55358,0.74532 c 0.11104,0.14146 0.23878,0.279 0.38264,0.40868 0.39457,0.35366 0.43344,0.65624 0.1406,1.07671 l 0.0602,0.28098 c -0.061,0.0865 -0.12331,0.17159 -0.18963,0.25542 -0.4673,0.56718 -0.77721,1.2195 -0.97862,2.06044 -0.20154,0.90381 -0.31415,1.34477 -0.40733,2.07961 -0.0339,0.28293 -0.0488,0.57503 -0.0596,0.86189 -0.0136,0.63922 -0.0176,1.28892 -0.0203,1.93993 0,0.47155 0.1406,0.81867 0.44361,1.08982 0.15752,0.14408 0.17242,0.69273 0.0234,1.12237 -0.0976,0.27377 -0.22688,0.53836 -0.37249,0.7951 -0.40811,0.70733 -0.51132,1.45789 -0.56212,2.16391 -0.0339,0.6104 -0.0136,1.24045 0.0717,1.91897 0.0406,0.38117 0.10285,0.67851 0.19463,0.94311 0.1246,0.36414 0.046,0.71257 -0.23365,1.03873 -0.62645,0.73353 -1.38998,1.34262 -2.12316,1.89277 -0.28608,0.21744 -0.58583,0.43488 -0.88382,0.65363 -0.4436,0.32223 -0.88718,0.64708 -1.3121,0.98764 -0.9346,0.75056 -1.56445,1.43039 -1.98273,2.1351 -0.48083,0.81998 -0.68401,1.69629 -0.61628,2.6787 0.11918,1.62555 0.86188,3.17121 2.34328,4.86356 0.41489,0.46763 0.84656,0.93133 1.31725,1.37013 0.78561,0.74139 1.53573,1.51684 2.22815,2.30669 0.2235,0.26198 0.52609,0.34029 0.84265,0.59833 0.22009,0.17945 0.43681,0.3183 0.66031,0.42571 0.57904,0.27114 1.14847,0.40897 1.6717,0.0527 0.21673,-0.14932 0.41311,-0.34711 0.60778,-0.61433 0.1273,-0.17683 0.24719,-0.35891 0.34376,-0.54884 0.19301,-0.39296 0.21554,-0.571 0.60672,-0.99278 l 0.31992,-0.35236 c 0.28961,-0.31568 0.51832,-0.74074 0.76891,-1.08 0.36909,-0.49251 0.57389,-0.93394 0.64501,-1.38585 0.0947,-0.57372 -0.0285,-1.10422 -0.37412,-1.62424 -0.24381,-0.3576 -0.56211,-0.69555 -0.89911,-1.05707 -0.41189,-0.78552 -0.82377,-1.01013 -1.23566,-2.37481 -0.088,-0.0957 0.0568,-0.36489 0.0568,-0.63211 0,-0.35367 0.58108,-0.003 1.1007,0.29818 h 9.2e-4"
             inkscape:connector-curvature="0"
             style="fill:#d3a802;fill-opacity:1;stroke:none"
             sodipodi:nodetypes="ccccccccccccccccsccccccccccccccccccccscccccccccccccccccscccccccssccccccccccccccccccccccccccccccccccccccccccccccccccccccccccccccccccccccccccccscccccccccccccccccccccccccscccccccccccscc"
             transform="matrix(4.2779281,0,0,4.2745968,-452.71326,-1860.0292)" />
          <path
             id="path2324"
             d="m 139.13086,442.24609 c -0.12194,0 -0.21258,0.10859 -0.33203,0.14649 -0.31792,0.10098 -0.62407,0.21966 -0.91602,0.37304 -1.14578,0.60204 -1.95438,1.12222 -2.66211,1.92383 -0.3947,0.44706 -0.81954,1.15107 -1.29687,1.56836 -0.17446,0.15251 -0.2933,0.30949 -0.44922,0.48438 -0.75821,0.85049 -1.02815,1.23716 -1.26367,2.28711 -0.30629,1.36547 -0.15597,2.43255 0.55078,3.7207 0.24979,0.45529 0.67866,0.81116 0.99805,1.25195 0.31262,0.43149 0.61675,0.69258 1.20117,1.98828 0.0666,0.14772 0.0527,0.17506 -0.12305,0.25586 -1.3718,0.63047 -1.99301,1.49356 -2.57812,2.62305 -0.11585,0.22362 -0.32793,0.4982 -0.43946,0.72461 -0.0614,0.12466 -0.29515,0.32578 -0.4414,0.42969 -0.53663,0.38125 -1.59538,0.5604 -1.96485,0.70898 -0.57533,0.23136 -1.14797,0.2329 -1.73437,0.004 -0.43965,-0.17175 -0.8742,-0.26337 -1.26172,-0.49805 -0.43872,-0.26569 -1.12368,-0.75174 -1.56836,-1.01758 -0.26309,-0.15728 -0.49909,-0.42922 -0.79297,-0.55664 -1.24687,-0.54062 -2.21339,-0.31083 -3.52148,0.12891 -0.68303,0.22961 -1.04426,0.63397 -1.62891,0.99219 -0.35173,0.21551 -0.69643,0.44044 -1.03125,0.67187 -0.69799,0.48246 -1.12596,0.57929 -1.89844,0.99024 -0.65314,0.34747 -1.31767,0.66329 -1.90625,1.08593 -0.47306,0.3397 -0.96251,0.67193 -1.23242,1.14649 -0.22229,0.39081 -0.45688,1.13776 -0.28906,1.93945 0.0659,0.31493 0.20805,0.61356 0.34375,0.91211 0.17207,0.37866 0.1455,0.68248 0.12304,1.08203 -0.0209,0.37066 -0.0214,0.74062 -0.0195,1.11524 0.002,0.30391 0.0673,0.60172 0.17579,0.89453 0.0866,0.23387 0.14937,0.33055 0.34374,0.50976 0.3736,0.3444 0.76181,0.37496 1.69532,0.31446 0.4256,-0.0276 0.89443,-0.1157 1.20117,-0.37891 0.43798,-0.37582 0.51446,-0.6813 0.98633,-1.05274 0.4966,-0.39089 0.9916,-0.77974 1.48437,-1.16992 0.2285,-0.18092 0.74162,-0.52048 1.04688,-0.61328 1.76848,-0.53788 2.85603,-0.53191 3.6582,-0.0762 0.27295,0.15508 0.43792,0.63149 0.62695,0.87695 0.13782,0.17895 0.24568,0.40999 0.42188,0.56836 0.16775,0.15076 0.32051,0.41602 0.18945,0.59766 -0.0958,0.13277 -0.1689,0.4041 -0.25195,0.54492 -0.48893,0.82943 -0.50894,0.87386 -0.81445,1.71875 -0.28813,0.79676 -0.52217,1.45046 -0.62696,2.28906 -0.0374,0.29969 -0.0561,0.6067 -0.0625,0.90821 -0.0136,0.64959 -0.0605,1.13384 0.006,1.80273 0.055,0.55529 0.12018,1.4636 0.60547,1.90039 0.0939,0.0845 -0.0217,0.23259 -0.0586,0.33594 -0.0861,0.24109 -0.20017,0.47725 -0.33008,0.70312 -0.43891,0.7631 -0.59564,2.03501 -0.64844,2.85938 -0.0434,0.67681 -0.003,1.3447 0.0742,2.01562 0.0413,0.35734 0.10142,0.7117 0.2207,1.05274 0.0677,0.1934 0.0158,0.34735 -0.12304,0.50976 -0.5655,0.6615 -1.2433,1.01117 -1.97461,1.5625 -0.72991,0.55027 -1.49987,1.08133 -2.2168,1.65625 -0.85768,0.6878 -1.62067,1.43527 -2.14062,2.31641 -0.55987,0.94876 -0.76761,1.94701 -0.69336,2.98828 0.13771,1.93084 0.53272,2.82541 1.91406,4.39844 0.43032,0.49003 0.78223,1.07603 1.26758,1.53125 0.77434,0.72628 1.54614,1.31926 2.22265,2.09961 0.26151,0.30165 0.57763,0.50079 0.90235,0.76562 0.25162,0.20521 0.46728,0.38691 0.8789,0.73242 0.77166,0.64775 0.52453,0.82208 1.21289,0.47657 0.52781,-0.26492 1.04477,-0.62615 1.4375,-1.01367 0.30306,-0.29903 0.52316,-0.76353 0.82422,-1.09571 0.41009,-0.45248 0.67096,-1.05747 1.03125,-1.54101 0.37952,-0.50934 0.6451,-0.96679 0.74024,-1.5586 0.11353,-0.70628 0.15576,-0.90448 -0.16993,-1.58593 -0.32853,-0.68741 -1.5053,-1.77686 -1.87695,-2.74805 -0.11324,-0.29595 -0.30775,-0.76233 -0.3457,-1.14649 -0.006,-0.0586 0.1382,-0.31582 0.19531,-0.35742 0.0814,-0.0593 0.17266,0.0367 0.23242,0.084 0.7106,0.56232 2.53097,2.25274 4.71094,1.9082 0.42526,-0.0672 0.52402,-0.0445 0.86523,0.43555 0.49859,0.70145 1.31492,1.42505 2.07422,1.98047 0.51568,0.37721 1.17675,0.77783 1.8418,0.98046 2.25518,0.85002 5.25678,0.70294 7.24993,0.10156 0.66505,-0.20263 1.31048,-0.70481 1.82616,-1.08202 0.7593,-0.55542 1.57563,-1.27902 2.07422,-1.98047 0.34121,-0.48005 0.43997,-0.50275 0.86523,-0.43555 2.17998,0.34454 4.00034,-1.34588 4.71094,-1.9082 0.0598,-0.0473 0.15102,-0.14329 0.23242,-0.084 0.0571,0.0416 0.20132,0.29882 0.19532,0.35742 -0.0379,0.38416 -0.23247,0.85054 -0.34571,1.14649 -0.37165,0.97119 -1.54842,2.06064 -1.87695,2.74805 -0.32569,0.68145 -0.28345,0.87965 -0.16992,1.58593 0.0951,0.59181 0.36071,1.04926 0.74023,1.5586 0.36029,0.48354 0.62116,1.08853 1.03125,1.54101 0.30106,0.33218 0.52116,0.79668 0.82422,1.09571 0.39273,0.38752 0.90969,0.74875 1.4375,1.01367 0.68836,0.34551 0.44123,0.17118 1.21289,-0.47657 0.41162,-0.34551 0.62729,-0.52721 0.87891,-0.73242 0.32472,-0.26483 0.64083,-0.46397 0.90234,-0.76562 0.67651,-0.78035 1.44832,-1.37333 2.22266,-2.09961 0.48535,-0.45522 0.83726,-1.04122 1.26758,-1.53125 1.38134,-1.57303 1.77635,-2.4676 1.91406,-4.39844 0.0742,-1.04127 -0.1335,-2.03952 -0.69336,-2.98828 -0.51995,-0.88114 -1.28295,-1.62861 -2.14062,-2.31641 -0.71693,-0.57492 -1.48689,-1.10598 -2.2168,-1.65625 -0.73131,-0.55133 -1.40911,-0.901 -1.97461,-1.5625 -0.13884,-0.16241 -0.19075,-0.31636 -0.12305,-0.50976 0.11928,-0.34104 0.1794,-0.6954 0.2207,-1.05274 0.0772,-0.67092 0.11762,-1.33881 0.0742,-2.01562 -0.0528,-0.82437 -0.20952,-2.09628 -0.64843,-2.85938 -0.12991,-0.22587 -0.24398,-0.46203 -0.33008,-0.70312 -0.0369,-0.10335 -0.1525,-0.25144 -0.0586,-0.33594 0.48529,-0.43679 0.55047,-1.3451 0.60547,-1.90039 0.0664,-0.66889 0.0195,-1.15314 0.006,-1.80273 -0.006,-0.30151 -0.0251,-0.60852 -0.0625,-0.90821 -0.10479,-0.8386 -0.33882,-1.4923 -0.62695,-2.28906 -0.30551,-0.84489 -0.32552,-0.88932 -0.81445,-1.71875 -0.083,-0.14082 -0.15616,-0.41215 -0.25196,-0.54492 -0.13106,-0.18164 0.0217,-0.4469 0.18946,-0.59766 0.1762,-0.15837 0.28405,-0.38941 0.42187,-0.56836 0.18903,-0.24546 0.354,-0.72187 0.62695,-0.87695 0.80217,-0.45574 1.88973,-0.46171 3.65821,0.0762 0.30526,0.0928 0.81837,0.43236 1.04687,0.61328 0.49277,0.39018 0.98778,0.77903 1.48438,1.16992 0.47187,0.37144 0.54835,0.67692 0.98633,1.05274 0.30674,0.26321 0.77557,0.35131 1.20117,0.37891 0.93351,0.0605 1.32171,0.0299 1.69531,-0.31446 0.19438,-0.17921 0.25715,-0.27589 0.34375,-0.50976 0.10849,-0.29281 0.17378,-0.59062 0.17578,-0.89453 0.002,-0.37462 0.001,-0.74458 -0.0195,-1.11524 -0.0225,-0.39955 -0.049,-0.70337 0.12305,-1.08203 0.1357,-0.29855 0.27785,-0.59718 0.34375,-0.91211 0.16782,-0.80169 -0.0668,-1.54864 -0.28907,-1.93945 -0.26991,-0.47456 -0.75936,-0.80679 -1.23242,-1.14649 -0.58858,-0.42264 -1.25311,-0.73846 -1.90625,-1.08593 -0.77248,-0.41095 -1.20044,-0.50778 -1.89843,-0.99024 -0.33483,-0.23143 -0.67952,-0.45636 -1.03126,-0.67187 -0.58465,-0.35822 -0.94587,-0.76258 -1.6289,-0.99219 -1.30809,-0.43974 -2.27462,-0.66953 -3.52149,-0.12891 -0.29388,0.12742 -0.52987,0.39936 -0.79296,0.55664 -0.44468,0.26584 -1.12964,0.75189 -1.56836,1.01758 -0.38752,0.23468 -0.82207,0.3263 -1.26172,0.49805 -0.5864,0.22899 -1.15905,0.22745 -1.73438,-0.004 -0.36947,-0.14858 -1.42821,-0.32773 -1.96484,-0.70898 -0.14625,-0.10391 -0.38001,-0.30503 -0.44141,-0.42969 -0.11153,-0.22641 -0.3236,-0.50099 -0.43945,-0.72461 -0.58511,-1.12949 -1.20633,-1.99258 -2.57813,-2.62305 -0.17575,-0.0808 -0.18964,-0.10814 -0.12304,-0.25586 0.58442,-1.2957 0.88855,-1.55679 1.20117,-1.98828 0.31939,-0.44079 0.74826,-0.79666 0.99805,-1.25195 0.70675,-1.28815 0.85707,-2.35523 0.55078,-3.7207 -0.23552,-1.04995 -0.50546,-1.43662 -1.26367,-2.28711 -0.15592,-0.17489 -0.27476,-0.33187 -0.44922,-0.48438 -0.47733,-0.41729 -0.90218,-1.1213 -1.29688,-1.56836 -0.70773,-0.80161 -1.51633,-1.32179 -2.66211,-1.92383 -0.29195,-0.15338 -0.59809,-0.27206 -0.91601,-0.37304 -0.11945,-0.0379 -0.21009,-0.14649 -0.33203,-0.14649 h -0.14454 -0.0918 -0.0918 z m 0.23633,0.98438 c 0.0869,-0.003 0.17523,-7.2e-4 0.23633,0.0176 0.78708,0.23632 2.398,1.2702 2.92968,1.83593 0.46222,0.49182 0.79571,1.07766 1.25586,1.56641 0.80195,0.8518 0.94208,0.60633 1.51172,1.85352 0.45323,0.99235 0.49171,1.97044 0.17383,2.97656 -0.19859,0.6286 -0.6042,1.17915 -1.08984,1.70312 -0.56573,0.61038 -1.27336,1.9773 -1.61329,2.69141 -0.0411,0.0863 -0.10929,0.11761 -0.2207,0.0996 -0.52047,-0.0842 -1.07038,-0.24369 -1.58984,-0.30469 -0.48463,-0.0343 -1.06551,-0.0586 -1.59375,-0.0586 -0.52824,0 -1.10912,0.0243 -1.59375,0.0586 -0.51946,0.061 -1.06938,0.22052 -1.58985,0.30469 -0.11141,0.018 -0.17963,-0.0133 -0.2207,-0.0996 -0.33993,-0.71411 -1.04755,-2.08103 -1.61328,-2.69141 -0.48564,-0.52397 -0.89125,-1.07452 -1.08984,-1.70312 -0.31788,-1.00612 -0.27941,-1.98421 0.17382,-2.97656 0.56964,-1.24719 0.70977,-1.00172 1.51172,-1.85352 0.46015,-0.48875 0.79364,-1.07459 1.25586,-1.56641 0.53168,-0.56573 2.14261,-1.59961 2.92969,-1.83593 0.0611,-0.0183 0.14942,-0.0205 0.23633,-0.0176 z m 0,13.33203 c 0.7794,0 1.2168,-0.0398 2.3457,0.18164 0.4606,0.0904 0.87601,0.30975 1.30664,0.4707 0.87309,0.32633 1.50114,0.83604 1.92774,1.50196 0.23549,0.3676 0.54101,0.71322 0.60351,1.13672 0.0829,0.5615 -0.008,1.22953 -0.16211,1.75 -0.11454,0.38559 -0.4864,0.70484 -0.74609,1.02148 -0.60928,0.74289 -0.1692,0.79807 -1.67969,1.52148 -0.29261,0.14014 -0.50953,0.25538 -0.64844,0.26758 -0.51977,0.0454 -0.95487,0.1926 -1.32422,0.1836 -0.48587,-0.0112 -0.79725,-0.003 -1.12109,-0.0762 -0.0863,-0.0194 -0.17066,-0.0136 -0.25976,0.006 -0.0493,0.0105 -0.19279,0.0125 -0.24219,0.0195 -0.0494,-0.007 -0.19285,-0.009 -0.24219,-0.0195 -0.0891,-0.0195 -0.17351,-0.0253 -0.25977,-0.006 -0.32384,0.0734 -0.63522,0.065 -1.12109,0.0762 -0.36935,0.009 -0.80445,-0.13823 -1.32422,-0.1836 -0.13891,-0.0122 -0.35583,-0.12744 -0.64844,-0.26758 -1.51049,-0.72341 -1.0704,-0.77859 -1.67968,-1.52148 -0.25969,-0.31664 -0.63156,-0.63589 -0.7461,-1.02148 -0.15453,-0.52047 -0.24497,-1.1885 -0.16211,-1.75 0.0625,-0.4235 0.36803,-0.76912 0.60352,-1.13672 0.4266,-0.66592 1.05464,-1.17563 1.92773,-1.50196 0.43063,-0.16095 0.84604,-0.3803 1.30664,-0.4707 1.1289,-0.22147 1.56631,-0.18164 2.34571,-0.18164 z m -16.95313,2.72461 c 0.39431,-0.0193 0.77983,0.0354 1.04102,0.21094 1.31292,0.88255 2.003,1.35524 4.0332,2.26757 0.16554,0.0744 0.16845,0.071 0.041,0.22461 -0.60499,0.7293 -1.17648,1.752 -1.63282,2.54102 -0.23609,0.40821 -0.61123,1.90779 -0.6875,2.75977 -0.0167,0.187 -0.0915,0.19184 -0.26562,0.0879 -0.70127,-0.41862 -0.26351,-1.5309 -2.5,-1.5625 -0.85917,-0.0122 -1.6973,0.13014 -2.48438,0.38867 -0.83995,0.2759 -1.56762,0.67053 -2.19336,1.18554 -0.46124,0.37964 -1.62035,1.53458 -2.09179,1.9043 -0.27014,0.21187 -0.77074,0.32274 -1.125,0.30664 -0.22393,-0.0102 -0.53253,-0.26797 -0.53711,-0.43164 -0.009,-0.31192 -0.0601,-0.64591 -0.0195,-1.06836 0.0631,-0.65614 -0.13731,-1.42437 -0.35547,-2.21875 -0.1944,-0.70787 -0.21918,-1.76407 0.38086,-2.20898 0.58854,-0.43638 1.45284,-0.88082 2.0918,-1.13867 1.38478,-0.55884 2.48087,-1.41141 3.67578,-2.23047 0.28992,-0.19873 0.608,-0.37579 0.93945,-0.53907 0.19506,-0.0961 0.39609,-0.17309 0.59375,-0.25 0.29818,-0.11606 0.70139,-0.20921 1.0957,-0.22851 z m 33.90625,0 c 0.39431,0.0193 0.79753,0.11245 1.09571,0.22851 0.19766,0.0769 0.39869,0.15391 0.59375,0.25 0.33145,0.16328 0.64953,0.34034 0.93945,0.53907 1.19491,0.81906 2.29099,1.67163 3.67578,2.23047 0.63895,0.25785 1.50326,0.70229 2.0918,1.13867 0.60004,0.44491 0.57526,1.50111 0.38086,2.20898 -0.21816,0.79438 -0.41857,1.56261 -0.35547,2.21875 0.0406,0.42245 -0.0105,0.75644 -0.0195,1.06836 -0.005,0.16367 -0.31318,0.42144 -0.53711,0.43164 -0.35426,0.0161 -0.85486,-0.0948 -1.125,-0.30664 -0.47144,-0.36972 -1.63056,-1.52466 -2.0918,-1.9043 -0.62573,-0.51501 -1.35341,-0.90964 -2.19336,-1.18554 -0.78708,-0.25853 -1.6252,-0.40087 -2.48437,-0.38867 -2.23649,0.0316 -1.79873,1.14388 -2.5,1.5625 -0.17412,0.10395 -0.24893,0.0991 -0.26563,-0.0879 -0.0763,-0.85198 -0.45141,-2.35156 -0.6875,-2.75977 -0.45634,-0.78902 -1.02782,-1.81172 -1.63281,-2.54102 -0.12743,-0.15361 -0.12453,-0.1502 0.041,-0.22461 2.0302,-0.91233 2.72029,-1.38502 4.03321,-2.26757 0.26119,-0.17554 0.6467,-0.23024 1.04101,-0.21094 z m -24.65234,2.19727 c 0.19563,-0.007 0.33225,-0.002 0.35351,0.0195 0.58135,0.60148 0.74405,1.48696 1.46875,2.0664 0.29055,0.23231 0.49243,0.59117 0.60547,1.15235 0.0358,0.1771 0.10081,0.76385 0.0879,0.9375 -0.0577,0.7769 -0.32415,1.27376 -0.51562,1.88672 -0.20133,0.64451 -0.61673,0.95384 -1.01953,1.5332 -0.12725,0.18303 -0.30576,0.3287 -0.55078,0.42969 -0.092,0.0379 -0.19302,0.0774 -0.31055,0.0684 -0.26007,-0.0208 -0.5199,-0.0612 -0.77734,-0.0918 -0.68907,-0.082 -2.61316,-0.31998 -3.28125,-0.45117 -0.43925,-0.0863 -0.91666,-0.12789 -1.30274,-0.32227 -0.24876,-0.12525 -0.3774,-0.27248 -0.36328,-0.52148 0.0211,-0.37058 0.0538,-0.81088 0.0391,-1.18164 -0.0151,-0.37718 0.07,-0.73672 0.24414,-1.08789 0.45405,-0.91546 0.91673,-2.15033 1.61719,-2.9668 0.32217,-0.37552 0.41337,-0.74009 0.87891,-1.00977 0.22867,-0.13246 0.75758,-0.21602 1.02539,-0.29492 0.0988,-0.0292 1.2139,-0.14629 1.80078,-0.16601 z m 15.39844,0 c 0.58688,0.0197 1.70198,0.13681 1.80078,0.16601 0.26781,0.0789 0.79672,0.16246 1.02539,0.29492 0.46554,0.26968 0.55673,0.63425 0.8789,1.00977 0.70046,0.81647 1.16314,2.05134 1.61719,2.9668 0.17414,0.35117 0.25924,0.71071 0.24414,1.08789 -0.0147,0.37076 0.018,0.81106 0.0391,1.18164 0.0141,0.249 -0.11453,0.39623 -0.36329,0.52148 -0.38608,0.19438 -0.86348,0.23597 -1.30273,0.32227 -0.66809,0.13119 -2.59218,0.36917 -3.28125,0.45117 -0.25744,0.0306 -0.51727,0.071 -0.77734,0.0918 -0.11753,0.009 -0.21855,-0.0305 -0.31055,-0.0684 -0.24502,-0.10099 -0.42353,-0.24666 -0.55078,-0.42969 -0.4028,-0.57936 -0.8182,-0.88869 -1.01953,-1.5332 -0.19147,-0.61296 -0.45793,-1.10982 -0.51563,-1.88672 -0.0129,-0.17365 0.0521,-0.7604 0.0879,-0.9375 0.11304,-0.56118 0.31492,-0.92004 0.60547,-1.15235 0.7247,-0.57944 0.8874,-1.46492 1.46875,-2.0664 0.0213,-0.0215 0.15789,-0.0265 0.35352,-0.0195 z m -11.50782,3.61914 c 0.46713,0.0404 1.0809,0.38781 1.54493,0.4121 0.28597,0.015 1.27256,0.0926 1.55859,0.0645 0.23187,-0.0227 0.4689,-0.0116 0.70508,0.004 0.23618,-0.0155 0.47321,-0.0266 0.70508,-0.004 0.28603,0.0281 1.27262,-0.0495 1.55859,-0.0645 0.46403,-0.0243 1.07779,-0.3717 1.54492,-0.4121 0.29304,-0.0253 0.30635,-0.0259 0.37305,0.20312 0.0359,0.1233 0.0773,0.25021 0.0879,0.37891 0.11427,1.38803 0.5882,2.34851 1.26172,3.28515 0.38803,0.53961 1.11872,1.50735 1.84961,1.78125 0.18856,0.0707 0.27715,0.18189 0.28515,0.33789 0.0156,0.30117 0.0237,0.60211 -0.0137,0.90625 -0.0887,0.7215 -0.23572,1.4397 -0.29492,2.16407 -0.0531,0.64969 -0.10399,1.17912 0.11133,1.80664 0.28764,0.83826 0.87781,1.84419 1.51758,2.54882 0.24745,0.27254 0.24796,0.22792 0,0.50782 -0.2719,0.30693 -0.59792,0.80489 -0.81836,1.13476 -0.63127,0.94465 -1.00319,1.89893 -0.78321,2.95899 0.0613,0.29567 0.0772,0.60045 0.0918,0.90429 0.0125,0.2581 -0.10486,0.45507 -0.35937,0.61329 -0.32074,0.19938 -0.67278,0.40795 -0.94922,0.66406 -0.61977,0.5742 -1.12985,1.28769 -1.35352,1.97851 -0.10591,0.32696 -0.15011,0.65613 -0.19141,0.98633 -0.0401,0.32081 -0.0419,0.28012 -0.45117,0.22852 -0.0272,-0.003 -0.0533,-0.0107 -0.0859,-0.0137 -0.45038,-0.0378 -0.88268,-0.13297 -1.33007,-0.19727 -0.91064,-0.13096 -1.59521,-0.20882 -2.75586,-0.26172 -1.16065,0.0529 -1.84522,0.13076 -2.75586,0.26172 -0.44739,0.0643 -0.8797,0.15944 -1.33008,0.19727 -0.0326,0.003 -0.0587,0.0107 -0.0859,0.0137 -0.40931,0.0516 -0.41102,0.0923 -0.45117,-0.22852 -0.0413,-0.3302 -0.0855,-0.65937 -0.19141,-0.98633 -0.22367,-0.69082 -0.73374,-1.40431 -1.35351,-1.97851 -0.27644,-0.25611 -0.62849,-0.46468 -0.94922,-0.66406 -0.25451,-0.15822 -0.37184,-0.35519 -0.35938,-0.61329 0.0146,-0.30384 0.0305,-0.60862 0.0918,-0.90429 0.21998,-1.06006 -0.15193,-2.01434 -0.7832,-2.95899 -0.22044,-0.32987 -0.54646,-0.82783 -0.81836,-1.13476 -0.24796,-0.2799 -0.24745,-0.23528 0,-0.50782 0.63977,-0.70463 1.22994,-1.71056 1.51758,-2.54882 0.21532,-0.62752 0.1644,-1.15695 0.11133,-1.80664 -0.0592,-0.72437 -0.20628,-1.44257 -0.29493,-2.16407 -0.0374,-0.30414 -0.0293,-0.60508 -0.0137,-0.90625 0.008,-0.156 0.0966,-0.26719 0.28516,-0.33789 0.73089,-0.2739 1.46158,-1.24164 1.84961,-1.78125 0.67352,-0.93664 1.14745,-1.89712 1.26172,-3.28515 0.0106,-0.1287 0.052,-0.25561 0.0879,-0.37891 0.0667,-0.22903 0.08,-0.22842 0.37304,-0.20312 z m -9.80468,4.3789 c 0.0481,-0.008 0.10067,0.003 0.16211,0.0274 0.98583,0.39712 2.73235,0.60883 3.8164,0.78711 0.4394,0.0722 1.0399,-0.0371 1.00196,0.51757 -0.0427,0.62461 0.0194,1.72976 0.0996,2.2793 0.0691,0.47352 0.14878,0.94635 0.19727,1.42187 0.0799,0.78328 -0.23254,1.46634 -0.52734,2.25391 -0.18193,0.48603 -0.47464,0.62602 -0.74805,0.91992 -0.10071,0.10822 -0.22378,0.15126 -0.38281,0.18946 -0.72882,0.17526 -2.54011,0.45183 -3.26367,0.49023 -0.53577,0.0285 -1.0453,0.0644 -1.3086,-0.0684 -0.10316,-0.052 -0.15144,-0.1768 -0.24609,-0.25 -0.13737,-0.10627 -0.44878,-0.91409 -0.45703,-1.05664 l -0.0781,-1.375 c -0.0392,-0.69706 0.013,-1.39591 0.13281,-2.08789 0.13757,-0.79474 0.33962,-1.32754 0.58399,-2.10937 0.15522,-0.49663 0.56863,-1.42198 0.88867,-1.85547 0.0373,-0.0505 0.0808,-0.0763 0.12891,-0.084 z m 27.22656,0 c 0.0481,0.008 0.0916,0.0335 0.12891,0.084 0.32003,0.43349 0.73345,1.35884 0.88867,1.85547 0.24437,0.78183 0.44641,1.31463 0.58398,2.10937 0.11981,0.69198 0.17201,1.39083 0.13281,2.08789 l -0.0781,1.375 c -0.008,0.14255 -0.31966,0.95037 -0.45703,1.05664 -0.0947,0.0732 -0.14294,0.198 -0.2461,0.25 -0.2633,0.1328 -0.77282,0.0969 -1.30859,0.0684 -0.72357,-0.0384 -2.53485,-0.31497 -3.26367,-0.49023 -0.15903,-0.0382 -0.2821,-0.0812 -0.38281,-0.18946 -0.27341,-0.2939 -0.56612,-0.43389 -0.74805,-0.91992 -0.2948,-0.78757 -0.60725,-1.47063 -0.52735,-2.25391 0.0485,-0.47552 0.12817,-0.94835 0.19727,-1.42187 0.0802,-0.54954 0.14231,-1.65469 0.0996,-2.2793 -0.0379,-0.55467 0.56255,-0.44537 1.00195,-0.51757 1.08405,-0.17828 2.83058,-0.38999 3.81641,-0.78711 0.0614,-0.0244 0.11401,-0.0353 0.1621,-0.0274 z M 128.80273,479 c 0.17258,-0.0183 0.27497,0.015 0.3711,0.11719 0.43006,0.45714 1.27988,1.48438 1.54687,2.00781 0.20142,0.39489 0.40235,0.75443 0.40235,1.17188 0,0.47998 0.0271,0.81288 -0.13867,1.42382 -0.0391,0.14416 -0.31008,0.24594 -0.43946,0.37696 -0.65729,0.66567 -1.43653,1.17391 -2.06445,1.55273 -0.40991,0.2473 -1.50359,0.6062 -1.98047,0.76953 -0.26133,0.0895 -0.53108,0.15425 -0.82227,0.15625 -0.17109,9.7e-4 -1.18316,-0.30158 -1.29101,-0.39648 -0.17659,-0.15532 -0.21545,-0.47362 -0.31445,-0.66407 -0.21357,-0.41079 -0.32519,-0.8396 -0.4043,-1.27343 -0.0889,-0.48709 -0.13671,-0.97967 -0.13672,-1.48438 -2e-5,-0.52434 0.0466,-1.06114 0.17969,-1.59179 0.10053,-0.40074 0.46678,-1.30424 0.64648,-1.68555 0.0506,-0.10727 0.17296,-0.11224 0.29492,-0.11524 0.22522,-0.005 0.44994,0.0236 0.67188,0.0176 0.81265,-0.0207 2.67584,-0.29761 3.47851,-0.38281 z m 21.12891,0 c 0.80267,0.0852 2.66587,0.36211 3.47852,0.38281 0.22194,0.006 0.44665,-0.0226 0.67187,-0.0176 0.12196,0.003 0.24432,0.008 0.29492,0.11524 0.1797,0.38131 0.54596,1.28481 0.64649,1.68555 0.13309,0.53065 0.17971,1.06745 0.17968,1.59179 -1e-5,0.50471 -0.0478,0.99729 -0.13671,1.48438 -0.0791,0.43383 -0.19073,0.86264 -0.4043,1.27343 -0.099,0.19045 -0.13786,0.50875 -0.31445,0.66407 -0.10785,0.0949 -1.11993,0.39745 -1.29102,0.39648 -0.29119,-0.002 -0.56094,-0.0668 -0.82226,-0.15625 -0.47689,-0.16333 -1.57056,-0.52223 -1.98047,-0.76953 -0.62792,-0.37882 -1.40717,-0.88706 -2.06446,-1.55273 -0.12938,-0.13102 -0.40035,-0.2328 -0.43945,-0.37696 -0.16577,-0.61094 -0.13867,-0.94384 -0.13867,-1.42382 0,-0.41745 0.20092,-0.77699 0.40234,-1.17188 0.26699,-0.52343 1.11682,-1.55067 1.54688,-2.00781 0.0961,-0.10219 0.19851,-0.13549 0.37109,-0.11719 z m -18.79687,6.10547 c 0.0496,4.5e-4 0.0977,0.0309 0.19335,0.0898 0.29122,0.17946 0.43778,0.23747 0.87696,0.53711 0.5865,0.40015 1.00569,1.03345 1.32812,1.66602 0.21463,0.42103 0.16992,0.51158 0.16992,0.97265 2e-5,0.0812 -0.0571,0.14844 -0.10742,0.21094 -0.61251,0.76136 -1.16377,2.15749 -1.41797,3.17774 -0.1591,0.63862 -0.21619,1.37018 -0.40625,2.00976 -0.0349,0.11753 -0.0751,0.23286 -0.12304,0.3457 -0.0724,0.1704 -0.10375,0.1618 -0.33789,0.1875 -0.72358,0.0795 -1.47189,0.23104 -2.47657,-0.30468 -1.26005,-0.67191 -2.30433,-1.22449 -2.72265,-2.20117 -0.113,-0.26383 -0.31641,-1.09467 -0.31641,-1.37891 v -0.65625 c 0,-0.67335 0.15903,-1.16979 0.13281,-1.8418 -0.004,-0.11131 0.0426,-0.18856 0.1875,-0.22656 1.11482,-0.29211 3.00101,-1.36122 3.9043,-1.92188 0.30384,-0.18859 0.6063,-0.38597 0.91211,-0.57421 0.10195,-0.0628 0.15347,-0.0923 0.20313,-0.0918 z m 16.46484,0 c 0.0497,-5e-4 0.10117,0.029 0.20312,0.0918 0.30581,0.18824 0.60827,0.38562 0.91211,0.57421 0.90329,0.56066 2.78948,1.62977 3.9043,1.92188 0.1449,0.038 0.1915,0.11525 0.1875,0.22656 -0.0262,0.67201 0.13281,1.16845 0.13281,1.8418 v 0.65625 c 0,0.28424 -0.2034,1.11508 -0.3164,1.37891 -0.41832,0.97668 -1.46261,1.52926 -2.72266,2.20117 -1.00468,0.53572 -1.75298,0.38418 -2.47656,0.30468 -0.23414,-0.0257 -0.26549,-0.0171 -0.33789,-0.1875 -0.0479,-0.11284 -0.0881,-0.22817 -0.12305,-0.3457 -0.19006,-0.63958 -0.24715,-1.37114 -0.40625,-2.00976 -0.2542,-1.02025 -0.80546,-2.41638 -1.41797,-3.17774 -0.0503,-0.0625 -0.10743,-0.12974 -0.10742,-0.21094 0,-0.46107 -0.0447,-0.55162 0.16992,-0.97265 0.32243,-0.63257 0.74163,-1.26587 1.32813,-1.66602 0.43918,-0.29964 0.58574,-0.35765 0.87695,-0.53711 0.0957,-0.0589 0.14376,-0.0894 0.19336,-0.0898 z m -24.22266,1.77344 c 0.13543,0.008 0.27325,0.0434 0.35157,0.0918 0.13797,0.0852 0.45527,0.19542 0.5996,0.26172 0.16097,0.0739 0.7617,0.11625 0.72852,0.36914 l -0.14062,1.07227 c -0.0842,0.642 -0.0187,1.30617 -0.01,1.9414 0.008,0.5569 0.19633,1.25994 0.4082,1.78907 0.0567,0.14153 0.0437,0.25084 -0.0488,0.38672 -0.3957,0.58112 -0.37928,1.04052 -0.15624,1.73828 0.13075,0.40909 0.22012,0.87702 0.49218,1.24023 0.32056,0.42797 0.49074,0.77346 0.86524,1.17578 0.24859,0.26706 0.46115,0.61802 0.68359,0.90039 0.3668,0.46557 0.29115,0.97435 0.043,1.47461 -0.11575,0.23329 -0.20068,0.55284 -0.38477,0.76172 -0.27307,0.30985 -0.57026,0.62467 -0.77343,0.99609 -0.36478,0.66688 -0.55937,1.07089 -1.07813,1.63282 -0.12667,0.13721 -0.73878,0.45698 -0.8457,0.61328 -0.0579,0.0846 -0.14416,0.0981 -0.23828,0.0234 -0.0448,-0.0356 -0.0954,-0.0753 -0.13867,-0.11719 -0.16471,-0.15977 -0.45882,-0.36731 -0.62305,-0.51172 -3.63432,-3.19565 -3.58234,-3.2132 -5.58594,-5.76172 -0.65337,-0.83105 -0.73435,-1.77079 -0.75195,-2.77148 -0.0163,-0.92616 0.62943,-2.50976 1.30468,-3.26563 0.5675,-0.63523 1.39452,-1.25041 2.08399,-1.82226 1.10809,-0.91905 2.0115,-1.32666 2.87891,-2.14258 0.0683,-0.0642 0.20051,-0.0839 0.33593,-0.0762 z m 31.98047,0 c 0.13542,-0.008 0.26764,0.012 0.33594,0.0762 0.86741,0.81592 1.77082,1.22353 2.87891,2.14258 0.68947,0.57185 1.51649,1.18703 2.08398,1.82226 0.67525,0.75587 1.32099,2.33947 1.30469,3.26563 -0.0176,1.00069 -0.0986,1.94043 -0.75196,2.77148 -2.0036,2.54852 -1.95161,2.56607 -5.58593,5.76172 -0.16423,0.14441 -0.45834,0.35195 -0.62305,0.51172 -0.0433,0.0419 -0.0939,0.0816 -0.13867,0.11719 -0.0941,0.0747 -0.18038,0.0612 -0.23828,-0.0234 -0.10692,-0.1563 -0.71904,-0.47607 -0.84571,-0.61328 -0.51876,-0.56193 -0.71334,-0.96594 -1.07812,-1.63282 -0.20317,-0.37142 -0.50037,-0.68624 -0.77344,-0.99609 -0.18409,-0.20888 -0.26901,-0.52843 -0.38476,-0.76172 -0.24818,-0.50026 -0.32384,-1.00904 0.043,-1.47461 0.22244,-0.28237 0.43501,-0.63333 0.6836,-0.90039 0.3745,-0.40232 0.54467,-0.74781 0.86523,-1.17578 0.27206,-0.36321 0.36143,-0.83114 0.49219,-1.24023 0.22304,-0.69776 0.23945,-1.15716 -0.15625,-1.73828 -0.0925,-0.13588 -0.10553,-0.24519 -0.0488,-0.38672 0.21187,-0.52913 0.4002,-1.23217 0.4082,-1.78907 0.009,-0.63523 0.0744,-1.2994 -0.01,-1.9414 l -0.14063,-1.07227 c -0.0332,-0.25289 0.56756,-0.29524 0.72852,-0.36914 0.14433,-0.0663 0.46164,-0.17652 0.59961,-0.26172 0.0783,-0.0484 0.21613,-0.0838 0.35156,-0.0918 z m -15.99023,2.23242 c 0.58523,0.002 1.42332,0.0148 1.99804,0.0508 0.74508,0.0467 2.11204,0.41153 2.86719,0.45703 0.15413,0.009 0.69611,0.42916 0.75781,0.53711 0.12837,0.22471 0.21987,0.45073 0.29297,0.69141 0.15215,0.50074 0.26983,1.02697 0.41016,1.52539 0.25886,0.9194 0.3572,1.7822 0.47461,2.48828 0.0818,0.49163 -0.31837,0.76335 -0.875,1.2832 -0.62761,0.58614 -1.33127,1.10794 -2.25391,1.50781 -0.73838,0.32001 -1.87806,0.50989 -2.58398,0.55469 -0.10069,0.007 -0.67193,0.091 -1.06702,0.084 -0.39509,0.007 -1.00807,-0.0777 -1.10876,-0.084 -0.70592,-0.0448 -1.84561,-0.23468 -2.58399,-0.55469 -0.92264,-0.39987 -1.62629,-0.92167 -2.2539,-1.50781 -0.55663,-0.51985 -0.95677,-0.79157 -0.875,-1.2832 0.11741,-0.70608 0.21575,-1.56888 0.47461,-2.48828 0.14033,-0.49842 0.258,-1.02465 0.41015,-1.52539 0.0731,-0.24068 0.1646,-0.4667 0.29297,-0.69141 0.0617,-0.10795 0.60368,-0.52811 0.75781,-0.53711 0.75515,-0.0455 2.12211,-0.41033 2.86719,-0.45703 0.57472,-0.036 1.41282,-0.0489 1.99805,-0.0508 z"
             inkscape:connector-curvature="0"
             style="fill:#67007f;fill-opacity:0.992157;stroke:none"
             sodipodi:nodetypes="sccssssssscsssscsssssssssscccccsssscsssscscccssscccssssssssssssssssscscsssccsscssccssssssssssscsssscccssccccsssssscssscscccccsssssssssccsscscssssssscscccsccssssssccscscsssssccscssccsscccccccccsscssscsscscscscssssccssssscssssssssssccssscscsscsssccsccssscccscccsscccccsssccsccccssscsccccscccccscsccssssssccsscscccccccscssccssssssccssscccccsssssccssccsssccccssccccccssssscccssssssssccscsscccssscccsscssccsscsssssccssscssscssssccscccccsscsssssccsscsscccccccscscssssssssssccsssssccccssssscccsssscssssccccsccccscccscsscccsssssscsc"
             transform="matrix(4.2779281,0,0,4.2745968,-452.71326,-1860.0292)" />
          <ellipse
             style="opacity:0.99;fill:#67007f;fill-opacity:0.992157;stroke:#67007f;stroke-width:3.26929;stroke-linecap:round;stroke-opacity:0.992157"
             id="path373"
             cx="130.62868"
             cy="58.834042"
             rx="1.2626907"
             ry="2.6516504" />
          <ellipse
             style="opacity:0.99;fill:#67007f;fill-opacity:0.992157;stroke:#67007f;stroke-width:3.26929;stroke-linecap:round;stroke-opacity:0.992157"
             id="path373-4"
             cx="153.24973"
             cy="58.806282"
             rx="1.2626907"
             ry="2.6516504" />
        </g>
      </g>
    </g>
  </g>
</svg>
